<svg xmlns="http://www.w3.org/2000/svg" version="1.1" xmlns:xlink="http://www.w3.org/1999/xlink" xmlns:svgjs="http://svgjs.com/svgjs" width="1440" height="60" preserveAspectRatio="none" viewBox="0 0 1440 60">
    <g mask="url(&quot;#SvgjsMask1085&quot;)" fill="none">
        <path d="M1069.817,59.731C1071.946,59.746,1074.37,59.676,1075.474,57.856C1076.603,55.994,1075.682,53.719,1074.614,51.821C1073.518,49.873,1072.048,47.935,1069.817,47.804C1067.395,47.662,1065.107,49.07,1063.932,51.193C1062.791,53.254,1062.962,55.836,1064.299,57.776C1065.486,59.498,1067.725,59.716,1069.817,59.731" fill="rgba(215, 188, 25, 1)" class="triangle-float3"></path>
        <path d="M805.487,9.825C807.065,9.731,808.215,8.549,809.061,7.214C809.996,5.739,810.979,3.995,810.16,2.453C809.311,0.854,807.295,0.381,805.487,0.486C803.868,0.58,802.517,1.564,801.672,2.948C800.783,4.405,800.261,6.197,801.089,7.69C801.937,9.218,803.743,9.929,805.487,9.825" fill="rgba(215, 188, 25, 1)" class="triangle-float2"></path>
        <path d="M223.549,61.488C229.291,61.405,235.821,61.476,238.865,56.606C242.027,51.547,240.062,45.117,236.97,40.015C234.011,35.131,229.258,31.463,223.549,31.329C217.61,31.189,212.139,34.32,208.987,39.356C205.619,44.738,203.957,51.756,207.447,57.06C210.726,62.044,217.584,61.574,223.549,61.488" fill="rgba(215, 188, 25, 1)" class="triangle-float3"></path>
        <path d="M533.533,22.546C535.733,22.583,537.369,20.667,538.33,18.688C539.167,16.965,539.019,14.961,538.009,13.333C537.054,11.794,535.339,11.084,533.533,10.956C531.408,10.806,528.898,10.783,527.805,12.611C526.698,14.463,527.927,16.662,529.005,18.532C530.085,20.405,531.371,22.51,533.533,22.546" fill="rgba(215, 188, 25, 1)" class="triangle-float2"></path>
        <path d="M204.261,59.873C207.806,59.802,211.049,57.866,212.772,54.767C214.449,51.752,214.294,48.042,212.466,45.116C210.74,42.355,207.514,41.01,204.261,41.148C201.244,41.276,198.829,43.235,197.178,45.764C195.308,48.629,193.604,52.063,195.139,55.12C196.788,58.404,200.587,59.947,204.261,59.873" fill="rgba(215, 188, 25, 1)" class="triangle-float3"></path>
        <path d="M38.753,37.801C40.81,37.778,42.72,36.734,43.763,34.961C44.821,33.162,44.92,30.918,43.859,29.121C42.815,27.352,40.806,26.429,38.753,26.474C36.778,26.518,35.048,27.649,34.025,29.339C32.96,31.098,32.544,33.279,33.547,35.074C34.571,36.907,36.653,37.824,38.753,37.801" fill="rgba(215, 188, 25, 1)" class="triangle-float1"></path>
        <path d="M186.017,10.462C189.091,10.287,191.837,8.62,193.352,5.939C194.842,3.303,194.706,0.178,193.363,-2.536C191.825,-5.645,189.486,-8.865,186.017,-8.886C182.526,-8.908,180.237,-5.664,178.513,-2.628C176.819,0.357,175.366,3.892,177.073,6.869C178.786,9.857,182.579,10.658,186.017,10.462" fill="rgba(215, 188, 25, 1)" class="triangle-float2"></path>
        <path d="M210.562,19.052C213.47,18.905,215.966,17.141,217.391,14.601C218.783,12.12,218.959,9.096,217.526,6.638C216.103,4.196,213.388,2.916,210.562,2.885C207.676,2.853,204.905,4.066,203.328,6.483C201.587,9.152,200.835,12.594,202.425,15.356C204.018,18.123,207.373,19.213,210.562,19.052" fill="rgba(215, 188, 25, 1)" class="triangle-float1"></path>
        <path d="M880.992,64.276C886.688,64.037,891.165,60.004,894.026,55.073C896.9,50.12,898.334,44.146,895.586,39.122C892.742,33.923,886.898,30.75,880.992,31.241C875.719,31.679,872.802,36.711,870.07,41.242C867.198,46.007,863.531,51.225,865.915,56.252C868.529,61.766,874.895,64.532,880.992,64.276" fill="rgba(215, 188, 25, 1)" class="triangle-float2"></path>
        <path d="M1114.582,39.629C1121.096,39.617,1126.917,35.6,1129.968,29.845C1132.839,24.43,1132.304,17.787,1128.845,12.727C1125.771,8.23,1120.029,7.281,1114.582,7.339C1109.268,7.396,1103.845,8.645,1100.838,13.026C1097.408,18.023,1096.314,24.517,1099.096,29.902C1102.095,35.706,1108.049,39.641,1114.582,39.629" fill="rgba(215, 188, 25, 1)" class="triangle-float1"></path>
        <path d="M508.936,38.199C513.807,37.993,516.793,33.335,519.008,28.992C520.975,25.137,521.789,20.748,519.8,16.904C517.644,12.738,513.625,9.397,508.936,9.53C504.414,9.658,501.337,13.565,499.09,17.492C496.863,21.384,495.348,25.86,497.273,29.91C499.468,34.527,503.829,38.415,508.936,38.199" fill="rgba(215, 188, 25, 1)" class="triangle-float1"></path>
        <path d="M823.267,43.102C827.625,42.893,830.971,39.834,833.306,36.148C835.872,32.097,838.176,27.272,836,22.999C833.677,18.438,828.385,16.424,823.267,16.436C818.171,16.448,813.16,18.632,810.633,23.057C808.124,27.45,808.713,32.917,811.41,37.197C813.933,41.2,818.54,43.328,823.267,43.102" fill="rgba(215, 188, 25, 1)" class="triangle-float3"></path>
        <path d="M341.454,61.311C343.963,61.305,346.281,60.056,347.607,57.926C349.016,55.662,349.465,52.827,348.192,50.483C346.866,48.041,344.233,46.605,341.454,46.595C338.657,46.585,335.97,47.979,334.629,50.434C333.336,52.801,333.816,55.671,335.249,57.956C336.588,60.091,338.934,61.317,341.454,61.311" fill="rgba(215, 188, 25, 1)" class="triangle-float1"></path>
    </g>
    <defs>
        <mask id="SvgjsMask1085">
            <rect width="1440" height="60" fill="#ffffff"></rect>
        </mask>
        <style>
            @keyframes float1 {
                0%{transform: translate(0, 0)}
                50%{transform: translate(-10px, 0)}
                100%{transform: translate(0, 0)}
            }

            .triangle-float1 {
                animation: float1 5s infinite;
            }

            @keyframes float2 {
                0%{transform: translate(0, 0)}
                50%{transform: translate(-5px, -5px)}
                100%{transform: translate(0, 0)}
            }

            .triangle-float2 {
                animation: float2 4s infinite;
            }

            @keyframes float3 {
                0%{transform: translate(0, 0)}
                50%{transform: translate(0, -10px)}
                100%{transform: translate(0, 0)}
            }

            .triangle-float3 {
                animation: float3 6s infinite;
            }
        </style>
    </defs>
</svg>